<svg xmlns="http://www.w3.org/2000/svg" viewBox="0 0 500 500">
  <defs>
    <linearGradient id="gradient-yy" x1="0%" y1="100%" x2="0%" y2="0%">
      <stop offset="0%" stop-color="#0E2332" /> <stop offset="50%" stop-color="#21647F" /> <stop offset="100%" stop-color="#46A0B6" /> </linearGradient>
  </defs>
  
  <g id="logo-yy-fusion">
    <path d="M 120, 100 
             L 200, 100 
             C 210, 100, 220, 105, 230, 115 
             L 300, 200 
             C 310, 210, 320, 215, 330, 215 
             L 380, 215 
             C 390, 215, 395, 220, 395, 230 
             L 395, 270 
             C 395, 280, 390, 285, 380, 285 
             L 330, 285 
             C 320, 285, 310, 290, 300, 300 
             L 200, 400 
             C 190, 410, 180, 415, 170, 415 
             L 120, 415 
             C 110, 415, 105, 410, 105, 400 
             L 105, 120 
             C 105, 110, 110, 100, 120, 100 
             Z 
             M 250, 215 
             L 280, 215 
             C 290, 215, 295, 220, 295, 230 
             L 295, 270 
             C 295, 280, 290, 285, 280, 285 
             L 250, 285 
             C 240, 285, 235, 280, 235, 270 
             L 235, 230 
             C 235, 220, 240, 215, 250, 215 
             Z" fill="url(#gradient-yy)" />
  </g>
</svg>
